<svg xmlns="http://www.w3.org/2000/svg"  viewBox="0 0 48 48" width="48px" height="48px"><circle cx="28" cy="28" r="19.1" fill="#ffe082"/><path fill="none" stroke="#18193f" stroke-linecap="round" stroke-linejoin="round" stroke-width="3" d="M7.2,31.8c-1.1-2.4-1.7-5-1.7-7.8C5.5,13.8,13.8,5.5,24,5.5c3.1,0,6,0.8,8.6,2.1"/><path fill="none" stroke="#18193f" stroke-linecap="round" stroke-linejoin="round" stroke-width="3" d="M40.8,16.2c1.1,2.4,1.7,5,1.7,7.8c0,10.2-8.3,18.5-18.5,18.5c-5.2,0-9.9-2.1-13.3-5.6"/><path fill="none" stroke="#18193f" stroke-linecap="round" stroke-linejoin="round" stroke-width="3" d="M31.5,28L31.5,28c0-2.5-2-4.5-4.5-4.5h-7.7"/><path fill="none" stroke="#18193f" stroke-linecap="round" stroke-linejoin="round" stroke-width="3" d="M18.5,23.5v9H27"/><path fill="none" stroke="#18193f" stroke-linecap="round" stroke-linejoin="round" stroke-width="3" d="M25.5,23.5c2.2,0,4-1.8,4-4l0,0c0-2.2-1.8-4-4-4h-7v8"/><line x1="23.5" x2="23.5" y1="15.5" y2="12.5" fill="none" stroke="#18193f" stroke-linecap="round" stroke-linejoin="round" stroke-width="3"/><line x1="23.5" x2="23.5" y1="35.5" y2="32.5" fill="none" stroke="#18193f" stroke-linecap="round" stroke-linejoin="round" stroke-width="3"/></svg>