<svg xmlns="http://www.w3.org/2000/svg" xmlns:xlink="http://www.w3.org/1999/xlink" viewBox="0,0,256,256" width="48px" height="48px"><g fill="none" fill-rule="nonzero" stroke="#0cb689" stroke-width="3" stroke-linecap="round" stroke-linejoin="round" stroke-miterlimit="10" stroke-dasharray="" stroke-dashoffset="0" font-family="none" font-weight="none" font-size="none" text-anchor="none" style="mix-blend-mode: normal"><g transform="scale(5.33333,5.33333)"><path d="M7.2,31.8c-1.1,-2.4 -1.7,-5 -1.7,-7.8c0,-10.2 8.3,-18.5 18.5,-18.5c3.1,0 6,0.8 8.6,2.1"></path><path d="M40.8,16.2c1.1,2.4 1.7,5 1.7,7.8c0,10.2 -8.3,18.5 -18.5,18.5c-5.2,0 -9.9,-2.1 -13.3,-5.6"></path><path d="M31.5,28v0c0,-2.5 -2,-4.5 -4.5,-4.5h-7.7"></path><path d="M18.5,23.5v9h8.5"></path><path d="M25.5,23.5c2.2,0 4,-1.8 4,-4v0c0,-2.2 -1.8,-4 -4,-4h-7v8"></path><path d="M23.5,15.5v-3"></path><path d="M23.5,35.5v-3"></path></g></g></svg>